# xmcd
# 
# Track frame offsets:
#   150
#   16907
#   28067
#   43765
#   60097
#   81175
#   96142
#   111242
#   128160
#   146905
#   162817
#   178940
#   196007
#   215365
# 
# Disc length: 3087 seconds
# 
# Revision: 1
# Processed by: cddbd v1.5.1PL2 Copyright (c) Steve Scherf et al.
# Submitted via: Synapstar 1.0 
# 
DISCID=ba0c0d0e
DTITLE=Various Artist - SD045 - Country Hits Today
DYEAR=1900
DGENRE=Country
TTITLE0=Shania Twain - Don't Be Stupid
TTITLE1=Garth Brooks - Long Neck Bottle
TTITLE2=Deana Carter - Did I Shave My Legs For This?
TTITLE3=Lee Ann Womack - You've Got To Talk To Me
TTITLE4=Sammy Kershaw - Love Of My Life
TTITLE5=Kevin Sharp - There's Only You
TTITLE6=David Lee Murphy - Just Don't Wait Around 'Til She's Leavin'
TTITLE7=Collin Raye With Jim Brickman - The Gift
TTITLE8=Lorrie Morgan - One Of Those Nights Tonight
TTITLE9=Neal McCoy - If You Can't Be Good
TTITLE10=Travis Tritt - Still In Love With You
TTITLE11=Kris Tyler - What A Woman Knows
TTITLE12=Sons Of The Desert - Hand Of Fate
TTITLE13=Wade Hayes - The Day She Left Tulsa
EXTD=MediaType: Karaoke CD+G Producer: StarDisc
EXTT0=
EXTT1=
EXTT2=
EXTT3=
EXTT4=
EXTT5=
EXTT6=
EXTT7=
EXTT8=
EXTT9=
EXTT10=
EXTT11=
EXTT12=
EXTT13=
PLAYORDER=
